<?xml version="1.0" standalone="no"?>
<!DOCTYPE svg PUBLIC "-//W3C//DTD SVG 20010904//EN"
 "http://www.w3.org/TR/2001/REC-SVG-20010904/DTD/svg10.dtd">
<svg version="1.0" xmlns="http://www.w3.org/2000/svg"
 width="3840.000000pt" height="3840.000000pt" viewBox="0 0 3840.000000 3840.000000"
 preserveAspectRatio="xMidYMid meet">
<metadata>
Created by potrace 1.14, written by Peter Selinger 2001-2017
</metadata>
<g transform="translate(0.000000,3840.000000) scale(0.100000,-0.100000)"
fill="#000000" stroke="none">
<path d="M135 22866 c0 -48 2 -86 5 -87 3 0 14 -2 25 -4 11 -2 44 -7 74 -10
45 -5 201 -31 236 -39 64 -15 137 -41 146 -52 6 -8 17 -14 24 -14 33 0 148
-136 155 -182 1 -4 6 -22 11 -40 32 -109 33 -175 34 -2288 0 -1819 -3 -2186
-19 -2265 -2 -11 -7 -42 -10 -70 -9 -69 -55 -162 -104 -213 -23 -24 -42 -40
-42 -36 0 4 -8 0 -18 -9 -22 -20 -145 -68 -187 -73 -16 -2 -67 -10 -113 -19
-46 -8 -110 -17 -142 -19 -33 -2 -63 -7 -68 -10 -4 -2 -8 -38 -7 -78 0 -70 1
-73 25 -75 34 -3 92 -4 178 -2 40 1 75 -1 77 -3 3 -2 30 -1 60 2 31 3 58 3 60
0 2 -3 29 -3 60 0 31 3 58 3 60 0 2 -3 29 -3 60 0 31 3 58 3 60 0 2 -3 29 -3
60 0 31 3 58 2 61 -2 3 -5 9 -6 14 -3 5 3 39 5 77 5 37 -1 82 0 98 1 17 0 35
1 40 1 12 -1 443 -1 465 -1 8 0 44 0 80 0 82 -1 91 -1 170 0 36 1 92 0 125 -1
33 -1 67 -1 75 -1 61 2 134 0 140 -4 5 -3 11 -2 14 3 3 5 27 6 53 3 26 -4 66
-4 88 -1 22 3 51 3 64 0 12 -3 48 -3 79 0 l57 5 0 60 c1 81 -3 95 -29 94 -33
-1 -208 10 -241 15 -16 3 -52 8 -80 12 -27 3 -53 8 -56 10 -3 2 -21 6 -39 9
-19 3 -40 11 -47 17 -7 6 -13 7 -13 4 0 -15 -118 56 -157 94 -58 57 -102 156
-119 270 -2 14 -6 41 -10 60 -3 19 -8 439 -9 933 l-3 899 43 -4 c24 -1 41 0
38 4 -2 5 6 4 19 0 13 -5 51 -8 85 -8 35 1 63 -1 63 -4 0 -3 111 -4 248 -3
352 2 581 14 757 38 17 3 53 7 80 10 28 3 88 14 135 24 47 11 88 17 93 14 4
-2 7 1 7 8 0 7 3 10 6 7 3 -4 38 3 77 14 40 11 77 21 82 22 6 2 23 8 38 14 16
7 32 12 37 12 5 0 26 7 47 16 21 9 49 21 63 27 14 5 32 13 40 18 8 5 22 12 30
14 16 6 66 32 140 72 44 24 192 128 239 168 53 45 132 127 180 187 28 35 58
70 66 79 8 9 15 21 15 27 0 7 4 12 8 12 5 0 15 12 22 28 8 15 19 34 26 42 54
69 167 341 189 455 30 154 36 217 36 335 -1 124 -6 192 -20 265 -7 33 -14 71
-17 85 -3 14 -10 41 -16 60 -15 48 -19 65 -18 68 0 1 -6 15 -14 31 -9 16 -12
31 -9 35 4 3 1 6 -5 6 -7 0 -12 6 -12 14 0 35 -130 251 -195 325 -46 53 -99
104 -145 142 -23 19 -52 42 -63 52 -12 10 -56 39 -97 65 -41 25 -83 52 -92 60
-10 8 -18 11 -18 7 0 -4 -8 -1 -17 7 -32 27 -283 132 -433 182 -130 43 -380
101 -485 112 -27 3 -57 7 -65 9 -8 2 -40 7 -70 10 -30 3 -73 8 -95 12 -22 3
-621 8 -1330 10 l-1291 4 1 -85z m2203 -250 c18 -4 63 -9 100 -11 37 -2 91 -9
120 -15 29 -5 56 -9 60 -8 4 1 18 -2 32 -5 14 -3 63 -15 110 -26 322 -76 554
-209 708 -404 41 -53 116 -171 117 -187 0 -3 6 -14 12 -25 5 -11 18 -45 27
-75 10 -30 20 -62 23 -70 11 -28 18 -57 27 -111 3 -19 8 -45 11 -59 24 -120
24 -431 -1 -554 -2 -12 -7 -34 -10 -51 -21 -122 -112 -365 -136 -365 -4 0 -8
-6 -8 -14 0 -8 -6 -21 -13 -28 -7 -7 -21 -26 -31 -43 -23 -35 -167 -185 -179
-185 -4 0 -18 -9 -30 -21 -28 -26 -137 -90 -202 -118 -27 -12 -58 -26 -67 -31
-10 -6 -22 -10 -27 -10 -5 0 -22 -5 -38 -12 -15 -6 -32 -12 -38 -13 -5 -1 -12
-3 -15 -4 -3 -2 -12 -4 -20 -6 -8 -2 -25 -6 -37 -9 -13 -3 -32 -8 -44 -11 -11
-2 -28 -6 -37 -9 -9 -3 -35 -7 -57 -10 -22 -4 -51 -8 -65 -11 -118 -25 -445
-35 -650 -21 -134 9 -223 17 -236 21 -14 4 -16 2250 -3 2336 15 98 43 133 125
159 50 15 88 17 249 15 104 -2 205 -6 223 -9z"/>
<path d="M20007 22943 c-2 -4 -4 -41 -4 -81 0 -85 3 -88 92 -92 61 -2 79 -3
176 -14 50 -6 198 -32 224 -39 175 -51 263 -141 298 -302 8 -38 15 -77 16 -85
0 -8 4 -44 8 -80 10 -83 11 -4166 1 -4280 -4 -47 -10 -96 -13 -110 -3 -14 -8
-40 -11 -58 -3 -18 -10 -35 -15 -38 -5 -3 -7 -9 -4 -14 3 -5 1 -11 -5 -15 -5
-3 -10 -13 -10 -22 0 -29 -71 -112 -131 -152 -63 -42 -187 -87 -264 -96 -25
-3 -66 -8 -92 -11 -27 -3 -86 -7 -133 -10 -151 -8 -135 2 -136 -87 l-1 -78 41
1 c23 1 46 1 51 0 6 -1 14 -2 18 -1 4 1 36 1 70 1 95 -1 94 -1 142 -1 25 0 51
0 58 0 13 -1 190 0 222 0 11 1 40 0 65 0 25 0 50 -1 55 0 70 3 167 3 170 -1 3
-2 30 -1 60 2 31 3 58 3 60 0 2 -3 29 -3 60 0 31 3 58 3 60 0 2 -3 29 -3 60 0
31 3 58 3 60 0 2 -3 29 -3 60 0 31 3 58 2 61 -2 3 -5 9 -6 14 -3 5 3 39 5 77
5 37 -1 82 0 98 1 17 0 35 1 40 1 12 -1 443 -1 465 -1 8 0 44 0 80 0 82 -1 91
-1 170 0 36 1 92 0 125 -1 33 -1 67 -1 75 -1 61 2 134 0 140 -4 5 -3 11 -1 15
5 4 6 10 8 14 5 5 -2 33 -5 62 -5 30 0 74 0 99 -1 25 -1 50 -1 55 -1 6 1 66 3
135 6 146 5 200 11 370 37 120 18 148 23 198 34 12 3 31 7 41 9 85 19 261 75
356 114 73 30 280 138 325 170 25 18 56 40 69 50 34 24 95 78 150 133 203 202
331 467 377 776 20 141 7 416 -26 543 -5 19 -11 44 -13 55 -4 22 -5 24 -50
135 -75 183 -195 339 -393 510 -80 69 -285 199 -324 205 -3 0 -14 6 -26 12
-25 14 -173 74 -194 78 -8 2 -16 4 -17 5 -2 2 -6 3 -10 4 -5 1 -33 10 -64 19
-31 9 -64 18 -75 20 -10 2 -26 6 -34 9 -22 8 -86 24 -157 39 -34 7 -60 16 -58
20 4 6 62 20 75 18 3 0 19 5 35 11 17 7 73 25 125 40 112 33 249 81 270 95 8
5 22 10 30 12 8 1 16 7 18 12 2 6 9 11 15 11 12 0 156 94 167 108 3 4 23 20
44 37 86 63 236 245 236 284 0 6 4 11 10 11 5 0 9 3 8 8 -1 4 5 21 14 37 8 17
26 62 38 100 12 39 25 77 28 85 8 22 10 31 17 74 4 21 9 48 11 60 22 100 22
345 0 486 -9 54 -53 221 -68 258 -6 15 -12 29 -13 32 0 3 -15 34 -33 70 -82
168 -221 328 -382 440 -83 56 -198 123 -260 149 -30 13 -68 29 -85 36 -55 25
-232 83 -270 89 -20 4 -42 9 -48 13 -5 3 -53 15 -106 25 -53 11 -103 21 -111
22 -8 2 -36 6 -61 10 -25 4 -57 9 -70 11 -29 5 -104 13 -184 21 -33 3 -76 8
-95 11 -63 8 -2828 14 -2833 6z m2538 -326 c17 -3 55 -7 85 -11 30 -3 66 -8
80 -10 14 -3 43 -7 65 -11 100 -14 335 -84 364 -108 8 -7 15 -10 15 -8 1 4 99
-40 106 -49 3 -3 22 -14 43 -25 21 -11 49 -30 64 -42 14 -13 29 -23 32 -23 7
0 83 -74 137 -132 29 -31 119 -164 119 -177 1 -3 8 -22 17 -41 21 -44 56 -139
61 -165 2 -11 7 -31 10 -45 36 -144 40 -447 7 -570 -5 -19 -11 -46 -14 -60
-14 -82 -92 -242 -153 -319 -36 -45 -107 -117 -154 -156 -119 -98 -331 -185
-536 -220 -18 -3 -45 -7 -60 -10 -83 -14 -213 -17 -653 -19 l-485 -1 0 1030 0
1030 25 49 c28 56 61 84 111 96 33 8 654 5 714 -3z m-419 -2560 c4 -3 16 -2
29 3 13 5 26 6 30 2 3 -4 30 -7 58 -8 81 -2 269 -14 297 -18 14 -3 57 -7 95
-11 80 -7 149 -15 185 -22 14 -2 41 -7 60 -9 54 -8 220 -51 291 -75 101 -34
247 -107 334 -168 73 -50 235 -203 235 -222 0 -4 7 -14 15 -22 28 -29 93 -153
124 -237 7 -19 17 -44 21 -55 15 -38 34 -136 45 -235 13 -113 7 -372 -10 -422
-2 -7 -6 -26 -8 -43 -11 -73 -81 -277 -99 -283 -4 -2 -8 -9 -8 -15 0 -35 -214
-297 -242 -297 -5 0 -17 -8 -27 -17 -74 -67 -246 -155 -406 -208 -87 -29 -176
-50 -245 -59 -25 -3 -54 -8 -65 -10 -30 -6 -149 -17 -235 -22 -78 -5 -82 -5
-115 -5 -11 0 -105 0 -210 0 -206 -1 -259 2 -350 21 -126 26 -193 85 -222 195
-4 17 -9 531 -10 1143 l-3 1114 215 -5 c119 -2 218 -7 221 -10z"/>
<path d="M9813 22214 c-10 -14 -46 -61 -80 -105 -35 -44 -63 -83 -63 -88 0 -4
-9 -16 -20 -26 -11 -10 -20 -24 -20 -32 0 -7 -7 -16 -15 -19 -8 -4 -15 -12
-15 -20 0 -8 -4 -14 -10 -14 -5 0 -10 -4 -10 -10 0 -17 -246 -338 -345 -449
-39 -45 -216 -222 -241 -242 -11 -8 -44 -34 -74 -57 -30 -23 -60 -47 -67 -52
-7 -6 -15 -10 -18 -10 -28 0 -144 -111 -154 -147 -7 -26 4 -71 18 -74 3 -1
105 -3 226 -4 121 -1 223 -3 226 -4 3 0 5 -615 5 -1366 -1 -751 2 -1365 5
-1365 3 0 5 -15 4 -32 -1 -30 25 -222 40 -293 18 -87 94 -274 122 -303 7 -7
13 -17 13 -21 0 -4 9 -19 21 -32 12 -13 31 -35 43 -49 61 -71 205 -158 291
-175 22 -5 45 -9 50 -11 89 -20 280 -21 365 0 14 3 36 8 50 11 51 9 96 22 115
32 11 6 23 11 28 12 4 0 28 9 53 21 26 11 48 20 50 20 6 0 127 73 143 86 9 7
34 27 56 44 97 76 208 197 292 318 l53 76 -51 52 -52 53 -92 -93 c-50 -51
-106 -101 -123 -111 -18 -11 -32 -23 -32 -27 0 -4 -9 -8 -20 -8 -11 0 -20 -4
-20 -8 0 -4 -28 -16 -62 -27 -68 -20 -266 -28 -303 -11 -11 5 -25 10 -31 11
-109 24 -220 173 -250 335 -18 100 -26 157 -31 243 -4 78 -8 2504 -4 2602 1
20 7 20 434 20 l432 0 0 135 0 135 -427 0 c-234 0 -430 3 -434 7 -4 4 -8 243
-9 530 0 288 -5 531 -9 540 -13 28 -35 29 -53 2z"/>
<path d="M12969 21245 c-3 -2 -55 -7 -115 -10 -60 -3 -118 -7 -129 -9 -11 -2
-42 -7 -68 -10 -79 -12 -213 -43 -232 -54 -5 -4 -15 -7 -20 -8 -6 -1 -40 -13
-76 -28 -36 -14 -70 -26 -76 -26 -6 0 -13 -3 -15 -7 -1 -5 -24 -18 -50 -30
-67 -32 -217 -126 -258 -162 -19 -17 -38 -31 -42 -31 -9 0 -205 -196 -250
-248 -15 -17 -32 -40 -37 -51 -6 -11 -17 -25 -23 -33 -61 -64 -266 -448 -240
-448 4 0 2 -4 -4 -8 -17 -12 -79 -198 -97 -294 -3 -15 -8 -31 -10 -35 -3 -5
-8 -26 -12 -48 -3 -22 -8 -49 -10 -60 -2 -11 -6 -40 -10 -65 -3 -25 -8 -58
-11 -75 -26 -173 -26 -642 0 -780 2 -11 6 -41 10 -66 12 -84 16 -103 47 -229
17 -69 35 -130 39 -135 5 -6 11 -22 14 -35 7 -37 64 -175 104 -250 41 -77 149
-241 192 -290 51 -59 184 -190 192 -190 5 0 16 -8 26 -17 35 -33 62 -53 72
-53 6 0 10 -4 10 -10 0 -5 11 -12 25 -16 14 -3 25 -10 25 -14 0 -13 217 -116
305 -144 88 -29 94 -30 210 -51 114 -21 395 -38 395 -25 0 3 36 6 80 7 110 2
230 26 430 85 19 6 40 13 45 16 6 4 16 7 23 8 6 1 63 27 125 58 228 114 448
294 612 501 22 28 43 52 48 53 4 2 7 8 7 14 0 6 16 31 36 54 19 24 32 44 27
44 -4 0 -3 4 3 8 25 17 208 345 198 355 -3 2 2 10 11 17 8 7 15 18 15 25 0 7
12 39 26 71 49 111 49 102 -2 124 -88 38 -85 39 -139 -42 -26 -40 -52 -74 -57
-76 -4 -2 -8 -9 -8 -15 0 -7 -14 -27 -30 -46 -17 -18 -30 -36 -30 -40 0 -3
-13 -20 -28 -38 -15 -17 -43 -51 -62 -75 -73 -91 -262 -269 -307 -291 -13 -5
-23 -14 -23 -18 0 -4 -12 -14 -27 -22 -16 -8 -56 -30 -91 -50 -34 -20 -66 -37
-70 -38 -12 -3 -35 -11 -72 -26 -39 -16 -34 -15 -145 -43 -102 -26 -181 -34
-330 -34 -117 0 -178 5 -240 19 -16 4 -37 8 -45 10 -8 2 -15 4 -15 5 0 1 -11
3 -25 6 -35 6 -143 44 -154 55 -6 5 -16 9 -22 9 -26 0 -162 87 -243 155 -167
141 -316 359 -415 610 -16 39 -32 79 -37 90 -11 27 -39 117 -44 141 -2 10 -4
19 -5 19 -4 0 -37 168 -44 230 -4 28 -9 69 -12 92 -4 24 -8 60 -9 80 -10 125
-18 246 -19 298 l-1 60 1313 0 1312 0 0 21 c0 12 -4 43 -9 70 -5 27 -12 69
-16 94 -3 25 -10 68 -15 95 -5 28 -12 64 -15 80 -3 17 -7 41 -11 55 -3 14 -9
41 -14 60 -27 113 -86 283 -131 372 -108 216 -290 411 -494 529 -75 44 -191
99 -208 99 -7 0 -23 7 -35 16 -12 8 -22 13 -22 11 0 -3 -28 4 -62 14 -34 11
-78 22 -96 25 -19 3 -44 8 -56 11 -34 7 -126 16 -186 17 -30 1 -58 4 -61 9 -3
4 -8 5 -10 2z m-136 -319 c37 -4 78 -11 92 -16 14 -5 25 -8 25 -5 0 6 107 -32
158 -57 151 -74 280 -257 351 -501 23 -77 49 -181 56 -227 9 -50 18 -99 28
-153 1 -9 -216 -13 -871 -15 l-874 -2 7 52 c4 29 9 60 10 68 91 471 257 710
565 813 97 32 123 37 255 44 61 3 112 7 114 9 2 2 7 2 10 0 4 -3 37 -7 74 -10z"/>
<path d="M6598 21235 c-2 -1 -28 -5 -58 -9 -62 -7 -85 -11 -179 -32 -88 -19
-84 -18 -98 -27 -7 -5 -13 -5 -13 -1 0 3 -7 1 -15 -6 -8 -7 -15 -10 -15 -7 0
8 -221 -82 -230 -94 -3 -3 -25 -16 -49 -29 -41 -20 -149 -88 -161 -100 -3 -3
-30 -24 -60 -46 -66 -49 -187 -167 -257 -249 -181 -214 -363 -587 -417 -855
-3 -14 -8 -36 -11 -50 -8 -37 -23 -119 -30 -165 -3 -23 -7 -51 -10 -63 -24
-128 -25 -634 -1 -768 2 -10 7 -41 10 -67 4 -27 9 -59 12 -70 5 -30 21 -106
28 -134 2 -10 9 -40 16 -68 6 -27 15 -55 21 -61 5 -7 9 -16 8 -20 -1 -5 1 -16
4 -24 3 -8 17 -44 31 -80 13 -36 32 -83 42 -105 10 -22 18 -42 19 -45 3 -16
122 -220 134 -230 3 -3 20 -25 36 -49 33 -48 208 -228 270 -276 49 -38 136
-94 205 -132 155 -85 427 -163 583 -167 20 0 37 -3 37 -6 0 -12 302 0 395 16
61 10 141 24 165 30 14 3 35 7 48 10 44 9 246 84 279 104 19 11 41 20 49 20 8
0 14 4 14 8 0 4 12 13 28 19 28 12 103 54 112 63 3 3 39 30 80 60 75 55 102
78 206 177 52 49 147 158 189 217 11 16 25 33 30 40 6 6 24 32 40 58 17 27 33
48 38 48 4 0 7 6 7 14 0 8 6 21 13 28 7 7 19 28 26 46 7 17 16 32 20 32 3 0
17 24 31 53 13 28 27 54 30 57 3 3 21 39 39 80 19 41 41 91 50 110 9 19 16 37
17 40 0 3 8 22 17 44 9 21 17 41 17 45 0 6 -111 51 -126 51 -5 0 -36 -40 -68
-88 -55 -81 -152 -213 -186 -255 -54 -65 -266 -270 -318 -307 -69 -49 -143
-95 -182 -111 -14 -5 -43 -19 -65 -29 -130 -62 -311 -94 -530 -94 -157 1 -307
26 -420 72 -59 24 -195 96 -195 103 0 5 -5 9 -11 9 -17 0 -119 83 -187 152
-68 70 -167 198 -198 256 -10 21 -21 39 -25 42 -14 12 -119 243 -139 305 -7
22 -16 45 -20 50 -5 6 -9 13 -9 18 -1 4 -1 8 -2 10 0 1 -2 9 -4 17 -1 8 -9 35
-16 60 -16 56 -14 47 -24 100 -5 25 -9 47 -10 50 0 3 -4 26 -8 51 -4 25 -9 57
-12 70 -3 23 -10 77 -21 184 -4 44 -9 123 -17 278 -2 26 0 48 3 48 3 1 595 2
1315 3 1157 1 1310 3 1310 16 -1 8 -7 51 -14 95 -7 44 -15 91 -17 105 -2 14
-7 36 -10 50 -3 14 -7 36 -9 50 -4 24 -11 65 -19 105 -30 150 -119 395 -168
468 -11 15 -17 27 -14 27 5 0 -33 62 -52 85 -5 6 -17 24 -28 40 -43 69 -225
248 -268 264 -5 2 -18 12 -28 21 -10 9 -31 23 -46 31 -15 8 -29 16 -32 19 -3
3 -16 11 -30 18 -14 6 -32 16 -40 21 -48 29 -237 102 -305 116 -146 32 -198
37 -362 40 -100 2 -183 2 -185 0z m22 -309 c41 -4 93 -10 115 -15 22 -5 55
-12 73 -16 18 -4 35 -12 38 -16 3 -5 16 -9 30 -9 13 0 24 -3 24 -8 0 -4 13
-13 29 -20 90 -40 197 -158 261 -287 33 -67 81 -195 96 -255 37 -151 48 -202
60 -285 3 -22 7 -46 9 -52 4 -10 -175 -13 -871 -13 l-876 0 6 28 c3 15 11 61
17 102 14 80 15 89 18 93 2 1 4 13 7 27 2 14 11 48 20 75 9 28 17 57 19 65 2
8 13 37 24 63 12 27 21 55 21 63 0 8 4 14 9 14 5 0 12 11 15 24 9 36 92 154
145 207 132 130 302 202 511 215 52 4 97 8 98 10 2 1 9 1 15 -1 7 -2 46 -6 87
-9z"/>
<path d="M15915 21156 c-88 -35 -169 -67 -180 -71 -11 -5 -22 -9 -25 -10 -3
-1 -14 -5 -25 -10 -20 -8 -302 -115 -425 -162 -36 -13 -77 -29 -92 -35 -15 -5
-31 -10 -35 -10 -4 0 -16 -4 -26 -10 -10 -5 -26 -11 -35 -13 -23 -4 -190 -64
-229 -81 -31 -14 -32 -16 -31 -75 l2 -61 30 7 c17 3 40 8 51 11 41 9 132 17
195 18 84 0 149 -18 193 -55 37 -30 84 -114 93 -165 3 -16 7 -36 9 -44 3 -8 8
-42 11 -75 8 -72 9 -2408 1 -2479 -16 -139 -36 -192 -94 -251 -37 -37 -128
-92 -163 -99 -8 -2 -28 -8 -45 -15 -30 -13 -121 -35 -185 -46 -19 -3 -54 -11
-77 -17 l-43 -10 0 -59 0 -59 43 -1 c35 0 166 1 202 2 6 0 39 0 75 0 79 0 88
0 170 0 111 1 134 1 180 0 25 -1 52 0 60 0 8 0 35 0 60 0 25 -1 78 -1 118 0
40 1 75 -1 77 -3 3 -2 30 -1 60 2 31 3 58 3 60 0 2 -3 29 -3 60 0 31 3 58 3
60 0 2 -3 29 -3 60 0 31 3 58 3 60 0 2 -3 29 -3 60 0 31 3 58 2 61 -2 3 -5 9
-6 14 -3 5 3 39 5 77 5 37 -1 82 0 98 1 17 0 35 1 40 1 6 -1 75 -1 155 -1 80
0 160 0 178 -1 27 0 32 3 33 22 3 48 0 90 -5 95 -3 3 -42 7 -87 9 -213 10
-422 75 -505 158 -64 64 -100 153 -120 296 -4 25 -7 520 -8 1100 -1 990 0
1058 17 1124 22 85 95 224 144 274 7 7 13 17 13 21 0 10 134 147 185 189 68
55 160 96 219 96 90 0 139 -26 255 -131 79 -72 95 -84 136 -108 66 -39 187
-57 270 -40 119 25 215 126 241 255 12 57 7 265 -6 265 -1 0 -3 8 -5 17 -8 40
-52 112 -100 161 -94 96 -222 139 -390 132 -99 -5 -112 -7 -194 -31 -65 -18
-120 -43 -139 -61 -7 -7 -17 -13 -22 -13 -4 0 -41 -25 -81 -56 -81 -62 -195
-176 -274 -274 -27 -35 -55 -68 -60 -74 -6 -6 -28 -36 -50 -66 -22 -30 -42
-57 -45 -60 -3 -3 -28 -38 -55 -78 -27 -41 -52 -75 -55 -77 -3 -2 -5 170 -5
382 0 373 0 386 -20 399 -11 8 -22 14 -25 14 -3 0 -77 -29 -165 -64z"/>
<path d="M35380 21193 c-36 -13 -72 -26 -80 -30 -28 -11 -145 -53 -160 -57 -8
-3 -32 -12 -52 -20 -21 -9 -39 -16 -40 -15 -4 1 -21 -5 -91 -30 -31 -11 -59
-21 -62 -21 -3 0 -10 -2 -17 -5 -85 -27 -286 -87 -333 -100 -33 -9 -66 -18
-73 -20 -7 -3 -14 -5 -17 -5 -3 0 -23 -7 -45 -15 -22 -8 -42 -14 -45 -14 -3
-1 -25 -6 -49 -12 -42 -10 -44 -13 -48 -52 -1 -23 -2 -59 0 -80 3 -31 6 -36
20 -28 30 16 134 33 196 33 145 -1 215 -36 270 -135 15 -26 26 -49 25 -52 0
-3 2 -18 5 -33 4 -15 9 -38 12 -52 15 -74 18 -265 18 -1340 0 -1227 -2 -1292
-33 -1410 -32 -117 -139 -231 -240 -256 -78 -18 -101 -23 -131 -28 -19 -2 -56
-8 -81 -11 l-47 -7 2 -56 c1 -64 -4 -60 101 -61 28 0 66 -1 85 -2 19 -1 42 -1
50 0 48 3 133 0 140 -4 5 -3 11 -2 14 3 3 4 30 5 61 2 31 -3 58 -3 60 0 2 3
29 3 60 0 31 -3 58 -3 60 0 2 3 29 3 60 0 31 -3 58 -2 61 2 3 5 10 6 15 3 7
-5 341 -7 459 -4 8 0 44 0 80 0 79 0 88 0 170 0 36 0 82 0 103 0 34 0 152 0
187 0 8 1 22 -1 30 -3 12 -2 15 10 16 60 1 34 -2 62 -5 63 -3 0 -19 2 -36 4
-16 2 -52 6 -78 10 -27 3 -70 10 -95 16 -26 6 -54 12 -62 14 -8 2 -35 11 -60
20 -25 9 -53 19 -62 22 -10 3 -18 9 -18 14 0 5 -5 9 -10 9 -36 0 -103 100
-126 188 -16 60 -16 86 -16 1394 l-1 1166 39 34 c21 18 45 40 54 48 181 171
334 283 459 335 67 28 93 37 161 52 62 14 246 24 264 15 5 -3 25 -6 45 -8 49
-5 144 -38 200 -71 95 -55 195 -189 231 -308 6 -22 14 -47 17 -55 7 -17 7 -17
22 -90 6 -30 14 -86 16 -125 7 -91 12 -2085 5 -2085 -3 0 -6 -35 -7 -78 -7
-254 -106 -418 -288 -475 -52 -17 -86 -25 -145 -33 -19 -3 -44 -7 -55 -9 -11
-2 -25 -4 -31 -4 -7 -1 -11 -24 -11 -62 l1 -61 53 4 c29 2 53 1 53 -2 0 -3 28
-4 62 -3 35 1 99 2 143 2 44 0 94 1 110 2 17 0 35 1 40 1 12 -1 443 -1 465 -1
8 0 44 0 80 0 82 -1 91 -1 170 0 36 1 92 0 125 -1 33 -1 67 -1 75 -1 61 2 134
0 140 -4 5 -3 11 -2 14 3 3 5 27 6 53 3 26 -4 64 -4 83 -1 19 3 49 3 67 -1 18
-4 34 -4 37 -1 9 8 7 122 -1 123 -5 0 -15 2 -23 4 -8 1 -34 6 -57 9 -177 28
-320 102 -366 192 -20 40 -46 129 -54 189 -4 28 -7 544 -8 1147 0 604 -2 1098
-5 1098 -3 0 -6 36 -7 80 -1 43 -4 94 -8 112 -3 18 -7 44 -10 58 -2 14 -7 41
-10 60 -4 19 -8 40 -9 45 -1 6 -5 16 -9 23 -5 6 -6 12 -3 12 3 0 -1 18 -9 40
-8 22 -12 40 -10 40 6 0 -45 122 -82 195 -105 206 -275 367 -468 442 -70 27
-96 35 -165 50 -92 19 -320 25 -390 9 -14 -3 -49 -11 -79 -17 -95 -19 -290
-98 -299 -121 -2 -4 -8 -8 -13 -8 -8 0 -101 -54 -124 -72 -16 -13 -81 -61
-111 -83 -15 -11 -32 -25 -38 -30 -6 -6 -40 -34 -76 -64 -56 -46 -138 -118
-231 -202 -14 -13 -42 -38 -61 -55 l-35 -32 -1 335 c0 184 -4 339 -8 343 -19
19 -62 16 -124 -7z"/>
<path d="M29929 21143 c-6 -36 -3 -135 4 -140 5 -3 24 -7 42 -9 178 -17 302
-60 367 -127 35 -36 84 -134 93 -187 4 -19 10 -59 14 -88 4 -29 8 -571 8
-1205 0 -1061 3 -1227 19 -1327 11 -69 12 -75 14 -77 3 -3 4 -7 14 -58 4 -22
11 -44 14 -50 4 -5 8 -19 9 -29 2 -11 8 -25 13 -31 5 -7 7 -15 3 -18 -3 -4 -1
-7 5 -7 7 0 11 -3 10 -7 -3 -11 54 -127 64 -131 4 -2 8 -9 8 -16 0 -7 9 -21
20 -31 11 -10 20 -22 20 -27 0 -13 84 -102 158 -168 80 -70 277 -163 392 -184
14 -3 39 -7 55 -11 17 -3 50 -8 75 -9 25 -2 47 -5 50 -6 6 -2 195 -2 195 0 0
1 14 3 30 5 68 7 112 15 143 24 17 5 32 8 32 6 0 -14 282 99 288 116 2 5 10 9
17 9 20 0 163 106 233 173 34 34 139 137 232 229 94 92 171 164 171 160 1 -4
2 -163 3 -354 0 -190 5 -350 9 -355 5 -4 43 5 85 20 166 61 328 119 342 122
30 9 146 47 165 55 17 7 151 48 180 55 6 1 17 4 25 8 14 5 120 34 158 42 63
15 211 56 228 64 18 8 20 16 16 67 -2 33 -5 60 -5 61 -1 0 -54 3 -117 6 -210
9 -302 48 -353 148 -15 30 -29 66 -31 79 -2 14 -6 36 -10 50 -13 49 -14 136
-15 1638 l-1 1522 -679 0 -679 0 0 -75 0 -75 32 -1 c17 -1 48 -2 69 -3 20 0
37 -5 37 -9 0 -5 5 -5 10 -2 10 6 185 -18 185 -25 0 -1 7 -3 15 -5 176 -36
254 -126 287 -330 4 -27 8 -561 8 -1185 0 -913 -3 -1148 -13 -1200 -8 -36 -17
-69 -20 -75 -4 -5 -7 -15 -8 -21 -6 -39 -76 -117 -168 -189 -22 -16 -51 -39
-65 -50 -74 -58 -184 -117 -306 -163 -33 -13 -139 -38 -200 -48 -69 -11 -218
-8 -275 6 -63 14 -200 77 -200 91 0 5 -6 9 -14 9 -24 0 -152 146 -186 212 -46
90 -62 144 -75 243 -2 17 -4 675 -4 1463 l-1 1432 -620 0 c-341 0 -621 -3
-621 -7z"/>
<path d="M25689 21115 c-2 -33 3 -100 6 -104 2 -2 17 -5 32 -6 68 -6 217 -65
263 -105 80 -68 129 -129 122 -152 -1 -5 3 -8 8 -8 5 0 10 -5 10 -11 0 -5 17
-47 39 -92 21 -45 49 -104 61 -132 27 -59 89 -194 132 -285 17 -36 43 -92 58
-125 64 -140 119 -259 197 -424 29 -62 53 -115 53 -116 0 -3 50 -110 123 -265
17 -36 31 -67 32 -70 3 -8 31 -70 78 -170 24 -52 54 -117 67 -145 13 -27 38
-83 57 -122 18 -40 33 -75 34 -78 0 -2 15 -35 33 -72 19 -38 39 -87 45 -110
13 -47 71 -166 83 -171 4 -2 8 -10 8 -18 0 -8 4 -14 8 -14 4 0 13 -12 19 -27
7 -16 25 -50 41 -78 16 -27 33 -59 39 -70 5 -11 18 -33 27 -50 93 -165 264
-564 251 -585 -3 -5 -1 -11 3 -14 23 -14 7 -132 -35 -256 -8 -25 -16 -53 -18
-62 -9 -42 -69 -204 -79 -210 -6 -4 -8 -8 -4 -8 4 0 -4 -26 -18 -57 -38 -86
-50 -113 -72 -168 -103 -253 -205 -398 -362 -518 -78 -59 -108 -71 -192 -73
-70 -1 -89 3 -203 46 -69 26 -125 45 -125 43 0 -3 -6 -1 -12 5 -7 5 -31 12
-53 15 -22 3 -58 9 -80 12 -69 10 -208 12 -255 3 -104 -19 -199 -88 -245 -180
-29 -55 -37 -91 -40 -178 -1 -57 2 -85 20 -150 41 -154 255 -308 470 -338 90
-12 268 -6 343 12 12 3 30 8 40 10 53 13 228 89 242 105 3 3 25 20 50 36 53
36 179 158 242 235 61 74 148 198 148 210 0 6 5 10 10 10 6 0 10 7 10 15 0 8
3 15 8 15 4 0 15 17 25 38 10 20 33 64 52 97 38 65 185 360 185 369 0 4 15 39
34 79 19 39 52 115 74 167 59 142 202 504 207 525 1 6 7 23 13 38 7 16 12 34
12 42 0 8 4 16 9 19 5 3 12 17 15 30 3 14 11 38 18 53 6 15 12 30 13 33 1 3 5
12 8 20 4 8 16 40 26 70 33 94 71 194 80 215 5 11 32 83 60 160 28 77 56 148
61 157 6 10 10 22 10 27 0 5 5 22 12 38 14 35 34 89 82 218 20 55 40 109 45
120 11 23 72 185 75 200 2 6 8 24 15 40 6 17 16 41 21 55 5 14 15 39 21 55 7
17 13 35 15 40 3 14 83 225 94 250 4 11 21 54 35 95 15 41 33 89 40 105 7 17
20 53 30 80 9 28 21 59 26 70 5 11 49 128 98 260 117 314 133 356 136 365 1 3
6 16 12 30 6 14 33 84 59 155 26 72 52 141 57 155 6 14 11 31 13 38 1 8 28 66
59 130 44 89 70 129 114 172 49 49 110 89 145 94 6 1 17 5 24 9 6 5 16 6 21 2
5 -3 12 -1 15 4 4 5 17 8 31 6 26 -2 27 2 27 95 0 11 0 26 -1 33 -1 9 -122 12
-576 12 -316 0 -575 -2 -576 -5 -6 -31 -2 -123 6 -126 6 -2 37 -6 70 -9 68 -6
99 -11 135 -20 14 -3 30 -7 35 -9 6 -1 33 -14 60 -28 56 -29 93 -67 105 -107
10 -37 4 -106 -13 -139 -27 -50 -64 -153 -193 -527 -19 -55 -37 -107 -41 -115
-8 -19 -8 -19 -18 -55 -4 -16 -10 -34 -14 -40 -3 -5 -6 -17 -8 -25 -1 -8 -6
-23 -12 -35 -9 -19 -21 -53 -20 -58 0 -1 -11 -31 -24 -67 -14 -36 -37 -101
-51 -145 -15 -44 -31 -87 -35 -95 -5 -9 -12 -31 -16 -50 -4 -19 -10 -39 -14
-45 -3 -5 -6 -12 -7 -15 0 -3 -4 -12 -7 -20 -3 -8 -54 -152 -112 -320 -58
-168 -110 -316 -115 -330 -5 -14 -37 -104 -70 -200 -34 -96 -69 -195 -77 -218
l-16 -44 -16 34 c-9 18 -29 62 -45 98 -16 36 -44 97 -61 135 -18 39 -42 93
-55 120 -12 28 -34 75 -48 105 -14 30 -27 57 -27 60 -2 5 -13 29 -68 150 -13
30 -35 78 -47 105 -13 28 -42 92 -66 143 -24 52 -44 95 -44 97 0 2 -17 41 -39
87 -21 46 -45 99 -54 118 -8 19 -34 76 -57 125 -22 50 -57 126 -77 170 -20 44
-51 112 -69 150 -17 39 -41 93 -54 120 -12 28 -32 73 -45 100 -13 28 -40 86
-60 130 -20 44 -54 114 -75 155 -52 104 -60 141 -62 272 -1 72 21 122 65 150
29 20 133 55 180 62 90 14 142 19 235 25 8 1 12 22 12 69 l0 67 -880 0 c-873
0 -880 0 -881 -20z"/>
</g>
</svg>
